<svg width="387" height="387" viewBox="0 0 387 387" fill="none" xmlns="http://www.w3.org/2000/svg">
<path d="M0 351.289V35.7109C0 16.0478 19.9849 0 44.7175 0H342.282C366.905 0 387 15.9597 387 35.7109V351.289C387 370.952 367.015 387 342.282 387H44.7175C19.9849 386.912 0 370.952 0 351.289Z" fill="black"/>
<path d="M101.3 308H69.8C63 308 58.5 306.9 56.3 304.7C54.3 302.5 53.3 297.9 53.3 290.9V108.2C53.3 101.2 54.3 96.6 56.3 94.4C58.5 92.2 63 91.1 69.8 91.1H101.3V308ZM194 266V291.5C194 298.3 192.9 302.8 190.7 305C188.5 307 183.9 308 176.9 308H113.3V266H194ZM176 177.5V195.5C176 202.7 175.3 207.3 173.9 209.3C172.5 211.1 168.5 212 161.9 212H113.3V177.5H176ZM191 91.1V116.6C191 123.4 189.9 127.9 187.7 130.1C185.5 132.1 180.9 133.1 173.9 133.1H113.3V91.1H191Z" fill="white"/>
<path d="M208.8 91.1C215.6 91.1 220.2 92.2 222.6 94.4C225.2 96.6 227 101.2 228 108.2L247.8 267.8C248.4 272.6 249.7 275.7 251.7 277.1C253.7 278.5 256.9 279.3 261.3 279.5L261 308H247.8C230.2 308 218.6 303.7 213 295.1C210 290.5 207.9 286 206.7 281.6C205.5 277 204.4 270.6 203.4 262.4L180 91.1H208.8ZM287.1 308H268.5L301.2 108.2C302 101.4 303.7 96.9 306.3 94.7C308.9 92.3 313.6 91.1 320.4 91.1H348.9L318.9 268.4C317.5 276 316.3 281.6 315.3 285.2C314.5 288.8 313 292.7 310.8 296.9C308.6 301.1 305.6 304 301.8 305.6C298 307.2 293.1 308 287.1 308Z" fill="white"/>
<rect x="107" y="163" width="80" height="62" fill="black"/>
<rect x="127" y="95" width="80" height="38" fill="white"/>
<mask id="mask0_269_3189" style="mask-type:alpha" maskUnits="userSpaceOnUse" x="130" y="168" width="81" height="53">
<rect x="211" y="168" width="52.0666" height="80.6666" transform="rotate(90 211 168)" fill="#9CE94F"/>
</mask>
<g mask="url(#mask0_269_3189)">
<path d="M73.6833 89.9C73.6833 84.4764 75.5816 79.8663 79.3781 76.0698C83.1746 72.2733 87.7847 70.375 93.2083 70.375L171.308 70.375C176.732 70.375 181.342 72.2733 185.138 76.0698C188.935 79.8663 190.833 84.4764 190.833 89.9L190.833 141.967C190.833 147.39 188.935 152 185.138 155.797C181.342 159.593 176.732 161.492 171.308 161.492L130.306 161.492L130.306 168C130.306 171.579 129.031 174.644 126.482 177.193C123.933 179.742 120.869 181.017 117.289 181.017L96.4625 181.017C95.5947 181.017 94.8354 181.342 94.1845 181.993C93.5337 182.644 93.2083 183.403 93.2083 184.271C93.2083 185.138 93.5337 185.898 94.1845 186.549C94.8354 187.199 95.5947 187.525 96.4624 187.525L138.767 187.525C138.767 183.945 140.041 180.881 142.59 178.332C145.139 175.783 148.204 174.508 151.783 174.508L171.308 174.508L171.308 181.017L184.325 181.017L184.325 190.779L171.308 190.779L171.308 197.287L184.325 197.287L184.325 207.05L171.308 207.05L171.308 213.558L151.783 213.558C148.204 213.558 145.139 212.284 142.59 209.735C140.041 207.185 138.767 204.121 138.767 200.542L97.1133 200.542C92.5574 200.542 88.7067 198.969 85.561 195.823C82.4153 192.677 80.8425 188.827 80.8425 184.271C80.8425 179.715 82.4153 175.864 85.561 172.718C88.7067 169.573 92.5574 168 97.1133 168L117.94 168L117.94 161.492L99.7166 161.492C92.5575 161.492 86.4288 158.942 81.3306 153.844C76.2324 148.746 73.6833 142.617 73.6833 135.458L73.6833 89.9ZM86.7 89.9L86.7 135.458C86.7 139.038 87.9745 142.102 90.5236 144.651C93.0727 147.2 96.137 148.475 99.7166 148.475C103.296 148.475 106.361 147.2 108.91 144.651C111.459 142.102 112.733 139.038 112.733 135.458L112.733 106.171C112.733 105.303 112.408 104.544 111.757 103.893C111.106 103.242 110.347 102.917 109.479 102.917C108.611 102.917 107.852 103.242 107.201 103.893C106.55 104.544 106.225 105.303 106.225 106.171L106.225 135.458C106.225 137.302 105.601 138.848 104.354 140.095C103.106 141.343 101.561 141.967 99.7166 141.967C97.8726 141.967 96.3269 141.343 95.0794 140.095C93.832 138.848 93.2083 137.302 93.2083 135.458L93.2083 106.171C93.2083 101.615 94.7811 97.7642 97.9268 94.6185C101.073 91.4728 104.923 89.9 109.479 89.9C114.035 89.9 117.886 91.4728 121.031 94.6185C124.177 97.7642 125.75 101.615 125.75 106.171L125.75 135.458C125.75 137.736 125.425 139.987 124.774 142.211C124.123 144.434 123.147 146.522 121.845 148.475L171.308 148.475C173.152 148.475 174.698 147.851 175.945 146.604C177.193 145.356 177.817 143.811 177.817 141.967L177.817 89.9C177.817 88.056 177.193 86.5102 175.945 85.2628C174.698 84.0154 173.152 83.3917 171.308 83.3917L93.2083 83.3916C91.3643 83.3916 89.8185 84.0154 88.5711 85.2628C87.3237 86.5102 86.7 88.0559 86.7 89.9ZM86.7 89.9L86.7 135.458L86.7 83.3916L86.7 89.9Z" fill="#9CE94F"/>
</g>
<rect x="113" y="185" width="27" height="18" fill="#9CE94F"/>
</svg>
