<svg width="1103" height="387" viewBox="0 0 1103 387" fill="none" xmlns="http://www.w3.org/2000/svg">
<path d="M0 351.289V35.7109C0 16.0478 19.9849 0 44.7175 0H342.282C366.905 0 387 15.9597 387 35.7109V351.289C387 370.952 367.015 387 342.282 387H44.7175C19.9849 386.912 0 370.952 0 351.289Z" fill="black"/>
<path d="M101.3 308H69.8C63 308 58.5 306.9 56.3 304.7C54.3 302.5 53.3 297.9 53.3 290.9V108.2C53.3 101.2 54.3 96.6 56.3 94.4C58.5 92.2 63 91.1 69.8 91.1H101.3V308ZM194 266V291.5C194 298.3 192.9 302.8 190.7 305C188.5 307 183.9 308 176.9 308H113.3V266H194ZM176 177.5V195.5C176 202.7 175.3 207.3 173.9 209.3C172.5 211.1 168.5 212 161.9 212H113.3V177.5H176ZM191 91.1V116.6C191 123.4 189.9 127.9 187.7 130.1C185.5 132.1 180.9 133.1 173.9 133.1H113.3V91.1H191Z" fill="white"/>
<path d="M208.8 91.1C215.6 91.1 220.2 92.2 222.6 94.4C225.2 96.6 227 101.2 228 108.2L247.8 267.8C248.4 272.6 249.7 275.7 251.7 277.1C253.7 278.5 256.9 279.3 261.3 279.5L261 308H247.8C230.2 308 218.6 303.7 213 295.1C210 290.5 207.9 286 206.7 281.6C205.5 277 204.4 270.6 203.4 262.4L180 91.1H208.8ZM287.1 308H268.5L301.2 108.2C302 101.4 303.7 96.9 306.3 94.7C308.9 92.3 313.6 91.1 320.4 91.1H348.9L318.9 268.4C317.5 276 316.3 281.6 315.3 285.2C314.5 288.8 313 292.7 310.8 296.9C308.6 301.1 305.6 304 301.8 305.6C298 307.2 293.1 308 287.1 308Z" fill="white"/>
<rect x="107" y="163" width="80" height="62" fill="black"/>
<rect x="127" y="95" width="80" height="38" fill="white"/>
<mask id="mask0_277_8190" style="mask-type:alpha" maskUnits="userSpaceOnUse" x="130" y="168" width="81" height="53">
<rect x="211" y="168" width="52.0666" height="80.6666" transform="rotate(90 211 168)" fill="#9CE94F"/>
</mask>
<g mask="url(#mask0_277_8190)">
<path d="M73.6831 89.9001C73.6831 84.4765 75.5813 79.8664 79.3778 76.0699C83.1744 72.2734 87.7844 70.3751 93.208 70.3751L171.308 70.3751C176.732 70.3751 181.342 72.2734 185.138 76.0699C188.935 79.8664 190.833 84.4765 190.833 89.9001L190.833 141.967C190.833 147.39 188.935 152 185.138 155.797C181.342 159.593 176.732 161.492 171.308 161.492L130.306 161.492L130.306 168C130.306 171.58 129.031 174.644 126.482 177.193C123.933 179.742 120.868 181.017 117.289 181.017L96.4622 181.017C95.5944 181.017 94.8351 181.342 94.1843 181.993C93.5335 182.644 93.208 183.403 93.208 184.271C93.208 185.139 93.5335 185.898 94.1843 186.549C94.8351 187.2 95.5944 187.525 96.4622 187.525L138.766 187.525C138.766 183.945 140.041 180.881 142.59 178.332C145.139 175.783 148.203 174.508 151.783 174.508L171.308 174.508L171.308 181.017L184.325 181.017L184.325 190.779L171.308 190.779L171.308 197.287L184.325 197.287L184.325 207.05L171.308 207.05L171.308 213.558L151.783 213.558C148.203 213.558 145.139 212.284 142.59 209.735C140.041 207.186 138.766 204.121 138.766 200.542L97.113 200.542C92.5572 200.542 88.7064 198.969 85.5607 195.823C82.4151 192.677 80.8422 188.827 80.8422 184.271C80.8422 179.715 82.4151 175.864 85.5607 172.719C88.7064 169.573 92.5572 168 97.113 168L117.94 168L117.94 161.492L99.7164 161.492C92.5572 161.492 86.4285 158.943 81.3303 153.844C76.2321 148.746 73.683 142.618 73.6831 135.458L73.6831 89.9001ZM86.6997 89.9001L86.6997 135.458C86.6997 139.038 87.9743 142.102 90.5234 144.651C93.0725 147.2 96.1368 148.475 99.7164 148.475C103.296 148.475 106.36 147.2 108.909 144.651C111.458 142.102 112.733 139.038 112.733 135.458L112.733 106.171C112.733 105.303 112.408 104.544 111.757 103.893C111.106 103.242 110.347 102.917 109.479 102.917C108.611 102.917 107.852 103.242 107.201 103.893C106.55 104.544 106.225 105.303 106.225 106.171L106.225 135.458C106.225 137.302 105.601 138.848 104.354 140.096C103.106 141.343 101.56 141.967 99.7164 141.967C97.8723 141.967 96.3266 141.343 95.0792 140.096C93.8318 138.848 93.208 137.302 93.208 135.458L93.208 106.171C93.208 101.615 94.7809 97.7643 97.9266 94.6186C101.072 91.4729 104.923 89.9001 109.479 89.9001C114.035 89.9001 117.885 91.4729 121.031 94.6186C124.177 97.7643 125.75 101.615 125.75 106.171L125.75 135.458C125.75 137.736 125.424 139.987 124.773 142.211C124.123 144.434 123.146 146.523 121.845 148.475L171.308 148.475C173.152 148.475 174.698 147.851 175.945 146.604C177.193 145.356 177.816 143.811 177.816 141.967L177.816 89.9001C177.816 88.0561 177.193 86.5103 175.945 85.2629C174.698 84.0155 173.152 83.3918 171.308 83.3918L93.208 83.3918C91.364 83.3918 89.8183 84.0155 88.5709 85.2629C87.3234 86.5103 86.6997 88.0561 86.6997 89.9001ZM86.6997 89.9001L86.6997 135.458L86.6997 83.3918L86.6997 89.9001Z" fill="#9CE94F"/>
</g>
<rect x="113" y="185" width="27" height="18" fill="#9CE94F"/>
<path d="M489.25 286C475.25 286 461.833 284.167 449 280.5C436.167 276.667 425.833 271.75 418 265.75L431.75 235.25C439.25 240.583 448.083 245 458.25 248.5C468.583 251.833 479 253.5 489.5 253.5C497.5 253.5 503.917 252.75 508.75 251.25C513.75 249.583 517.417 247.333 519.75 244.5C522.083 241.667 523.25 238.417 523.25 234.75C523.25 230.083 521.417 226.417 517.75 223.75C514.083 220.917 509.25 218.667 503.25 217C497.25 215.167 490.583 213.5 483.25 212C476.083 210.333 468.833 208.333 461.5 206C454.333 203.667 447.75 200.667 441.75 197C435.75 193.333 430.833 188.5 427 182.5C423.333 176.5 421.5 168.833 421.5 159.5C421.5 149.5 424.167 140.417 429.5 132.25C435 123.917 443.167 117.333 454 112.5C465 107.5 478.75 105 495.25 105C506.25 105 517.083 106.333 527.75 109C538.417 111.5 547.833 115.333 556 120.5L543.5 151.25C535.333 146.583 527.167 143.167 519 141C510.833 138.667 502.833 137.5 495 137.5C487.167 137.5 480.75 138.417 475.75 140.25C470.75 142.083 467.167 144.5 465 147.5C462.833 150.333 461.75 153.667 461.75 157.5C461.75 162 463.583 165.667 467.25 168.5C470.917 171.167 475.75 173.333 481.75 175C487.75 176.667 494.333 178.333 501.5 180C508.833 181.667 516.083 183.583 523.25 185.75C530.583 187.917 537.25 190.833 543.25 194.5C549.25 198.167 554.083 203 557.75 209C561.583 215 563.5 222.583 563.5 231.75C563.5 241.583 560.75 250.583 555.25 258.75C549.75 266.917 541.5 273.5 530.5 278.5C519.667 283.5 505.917 286 489.25 286ZM643.424 285C627.59 285 615.257 281 606.424 273C597.59 264.833 593.174 252.75 593.174 236.75V118.75H632.174V236.25C632.174 241.917 633.674 246.333 636.674 249.5C639.674 252.5 643.757 254 648.924 254C655.09 254 660.34 252.333 664.674 249L675.174 276.5C671.174 279.333 666.34 281.5 660.674 283C655.174 284.333 649.424 285 643.424 285ZM572.424 181.5V151.5H665.674V181.5H572.424ZM756.916 285C742.583 285 729.833 282 718.666 276C707.666 270 698.916 261.833 692.416 251.5C686.083 241 682.916 229.083 682.916 215.75C682.916 202.25 686.083 190.333 692.416 180C698.916 169.5 707.666 161.333 718.666 155.5C729.833 149.5 742.583 146.5 756.916 146.5C771.083 146.5 783.749 149.5 794.916 155.5C806.083 161.333 814.833 169.417 821.166 179.75C827.499 190.083 830.666 202.083 830.666 215.75C830.666 229.083 827.499 241 821.166 251.5C814.833 261.833 806.083 270 794.916 276C783.749 282 771.083 285 756.916 285ZM756.916 253C763.416 253 769.249 251.5 774.416 248.5C779.583 245.5 783.666 241.25 786.666 235.75C789.666 230.083 791.166 223.417 791.166 215.75C791.166 207.917 789.666 201.25 786.666 195.75C783.666 190.25 779.583 186 774.416 183C769.249 180 763.416 178.5 756.916 178.5C750.416 178.5 744.583 180 739.416 183C734.249 186 730.083 190.25 726.916 195.75C723.916 201.25 722.416 207.917 722.416 215.75C722.416 223.417 723.916 230.083 726.916 235.75C730.083 241.25 734.249 245.5 739.416 248.5C744.583 251.5 750.416 253 756.916 253ZM856.734 283V148.5H893.984V186.5L888.734 175.5C892.734 166 899.151 158.833 907.984 154C916.818 149 927.568 146.5 940.234 146.5V182.5C938.568 182.333 937.068 182.25 935.734 182.25C934.401 182.083 932.984 182 931.484 182C920.818 182 912.151 185.083 905.484 191.25C898.984 197.25 895.734 206.667 895.734 219.5V283H856.734ZM1029.2 285C1013.86 285 1000.36 282 988.697 276C977.197 270 968.281 261.833 961.947 251.5C955.614 241 952.447 229.083 952.447 215.75C952.447 202.25 955.531 190.333 961.697 180C968.031 169.5 976.614 161.333 987.447 155.5C998.281 149.5 1010.53 146.5 1024.2 146.5C1037.36 146.5 1049.2 149.333 1059.7 155C1070.36 160.5 1078.78 168.5 1084.95 179C1091.11 189.333 1094.2 201.75 1094.2 216.25C1094.2 217.75 1094.11 219.5 1093.95 221.5C1093.78 223.333 1093.61 225.083 1093.45 226.75H984.197V204H1072.95L1057.95 210.75C1057.95 203.75 1056.53 197.667 1053.7 192.5C1050.86 187.333 1046.95 183.333 1041.95 180.5C1036.95 177.5 1031.11 176 1024.45 176C1017.78 176 1011.86 177.5 1006.7 180.5C1001.7 183.333 997.781 187.417 994.947 192.75C992.114 197.917 990.697 204.083 990.697 211.25V217.25C990.697 224.583 992.281 231.083 995.447 236.75C998.781 242.25 1003.36 246.5 1009.2 249.5C1015.2 252.333 1022.2 253.75 1030.2 253.75C1037.36 253.75 1043.61 252.667 1048.95 250.5C1054.45 248.333 1059.45 245.083 1063.95 240.75L1084.7 263.25C1078.53 270.25 1070.78 275.667 1061.45 279.5C1052.11 283.167 1041.36 285 1029.2 285Z" fill="white"/>
</svg>
